<svg width="260" height="84" viewBox="0 0 260 84" fill="none" xmlns="http://www.w3.org/2000/svg">
<path d="M27.56 56.9001H27.79C30.7233 37.9534 33.6733 19.0034 36.64 0.0500488H54.83C54.83 25.97 54.7967 51.8867 54.73 77.8C49.79 78.16 47.31 78.36 42.37 78.8C42.37 59.9867 42.3933 41.1701 42.44 22.3501H42.2C39.2267 41.4301 36.2767 60.5134 33.35 79.6001C28.41 80.0601 25.94 80.31 21.01 80.83C17.83 61.9034 14.6767 42.9701 11.55 24.0301H11.37V81.89C6.81999 82.41 4.55 82.6901 0 83.2601V0.060051H18.18C21.26 19.0067 24.3867 37.9534 27.56 56.9001Z" fill="#E50914"/>
<path d="M76.5201 51.12C70.9801 34.1067 65.4934 17.08 60.0601 0.0400391H73.7201C76.9801 11.6 80.2567 23.1567 83.55 34.71H83.7901C87.0701 23.15 90.3701 11.5967 93.6901 0.0500412H106.17C100.623 16.9434 95.1001 33.84 89.6001 50.74C89.6001 60.79 89.6001 65.81 89.6001 75.86C84.3601 76.06 81.7401 76.18 76.5101 76.45C76.5001 66.31 76.5101 61.25 76.5201 51.12Z" fill="#E50914"/>
<path d="M124.47 33.4101C131.22 33.4101 134.6 33.4101 141.36 33.4101V44.1301C134.6 44.1301 131.22 44.0801 124.46 44.1301V75.1301C119.22 75.1301 116.6 75.1901 111.36 75.2801C111.36 50.2201 111.36 25.1568 111.36 0.0900879H145.94C145.94 4.39009 145.94 6.54009 145.94 10.8301C137.33 10.8301 133.03 10.8301 124.42 10.8301L124.47 33.4101Z" fill="#E50914"/>
<path d="M152.28 0.0400391H165.37L165.43 64.87C174.05 65.13 178.35 65.29 186.96 65.7C186.96 70.08 186.96 72.27 186.96 76.64C175.413 76.0734 163.867 75.63 152.32 75.31C152.313 50.2167 152.3 25.1267 152.28 0.0400391Z" fill="#E50914"/>
<path d="M192.57 0.0400391H205.64C205.68 25.98 205.713 51.9167 205.74 77.85C200.51 77.47 197.9 77.29 192.66 76.98L192.57 0.0400391Z" fill="#E50914"/>
<path d="M258.77 0.0400009C254.27 13.2533 249.72 26.4433 245.12 39.61C250.067 54.13 254.933 68.6733 259.72 83.24C254.23 82.55 251.48 82.24 245.98 81.6C242.48 70.6 238.953 59.6 235.4 48.6H235.16C231.627 58.86 228.077 69.1167 224.51 79.37C219.62 78.92 217.17 78.71 212.28 78.32C217.18 65.12 222.033 51.9033 226.84 38.67C222.34 25.7633 217.77 12.8767 213.13 0.0100021H226.68C229.98 9.89 233.237 19.7833 236.45 29.69H236.69C240.023 19.81 243.34 9.91333 246.64 0L258.77 0.0400009Z" fill="#E50914"/>
</svg>
